<?xml version="1.0" encoding="UTF-8" standalone="no"?>
<svg
   xmlns:dc="http://purl.org/dc/elements/1.1/"
   xmlns:cc="http://creativecommons.org/ns#"
   xmlns:rdf="http://www.w3.org/1999/02/22-rdf-syntax-ns#"
   xmlns:svg="http://www.w3.org/2000/svg"
   xmlns="http://www.w3.org/2000/svg"
   xmlns:sodipodi="http://sodipodi.sourceforge.net/DTD/sodipodi-0.dtd"
   xmlns:inkscape="http://www.inkscape.org/namespaces/inkscape"
   height="100%"
   viewBox="-36 0 440.32214 425.21875"
   width="100%"
   version="1.1"
   id="svg64"
   sodipodi:docname="turkey.svg"
   inkscape:version="0.92.4 (f8dce91, 2019-08-02)">
  <metadata
     id="metadata70">
    <rdf:RDF>
      <cc:Work
         rdf:about="">
        <dc:format>image/svg+xml</dc:format>
        <dc:type
           rdf:resource="http://purl.org/dc/dcmitype/StillImage" />
        <dc:title></dc:title>
      </cc:Work>
    </rdf:RDF>
  </metadata>
  <defs
     id="defs68" />
  <sodipodi:namedview
     pagecolor="#ffffff"
     bordercolor="#666666"
     borderopacity="1"
     objecttolerance="10"
     gridtolerance="10"
     guidetolerance="10"
     inkscape:pageopacity="0"
     inkscape:pageshadow="2"
     inkscape:window-width="1680"
     inkscape:window-height="995"
     id="namedview66"
     showgrid="false"
     fit-margin-top="0"
     fit-margin-left="0"
     fit-margin-right="0"
     fit-margin-bottom="0"
     inkscape:zoom="1.3828125"
     inkscape:cx="91.789204"
     inkscape:cy="213.48331"
     inkscape:window-x="0"
     inkscape:window-y="27"
     inkscape:window-maximized="1"
     inkscape:current-layer="svg64" />
  <path
     d="M 253.23794,76.367188 C 250.027,75.671875 246.64028,74.976562 243.0856,74.285156 223.61685,70.976562 203.90591,69.351562 184.15982,69.421875 h 17.35546 v -26.03125 c 0,-4.792969 -3.88281,-8.679687 -8.67578,-8.679687 h -17.35547 c -4.79296,0 -8.67968,3.886718 -8.67968,8.679687 v 26.03125 h 17.35547 c -19.74219,-0.07031 -39.45704,1.554687 -58.92188,4.863281 -3.55859,0.691406 -6.94531,1.386719 -10.15234,2.082032 l 3.64453,-16.140626 13.36328,-51.546874 c 0,0 11.97656,-8.679688 51.71875,-8.679688 h 0.69531 c 39.7461,0 51.71875,8.679688 51.71875,8.679688 l 13.36719,51.546874 z m 0,0"
     id="path12"
     inkscape:connector-curvature="0"
     style="fill:#35495e" />
  <path
     d="m 341.05825,166.96484 c -5.75781,1.09766 -11.41797,2.66407 -16.92187,4.6836 -16.08985,5.45312 -30.53906,14.88672 -42,27.42578 l -0.0899,0.0859 c -12.83984,-11.39844 -28.36718,-19.33985 -45.125,-23.08594 -0.18359,-0.1211 -0.39062,-0.21094 -0.60546,-0.25781 0.42968,-5.8086 1.92968,-11.48829 4.42578,-16.75 5.47265,-11.48438 13.30859,-21.6875 22.99609,-29.9375 h 0.0859 c 19.0039,-5.55469 31.67578,-13.01953 34.45312,-21.4336 0.95313,-0.4375 1.82032,-0.78125 2.77735,-1.1289 22.90625,-8.332035 44.08203,-6.50782 53.28125,6.50781 9.37109,13.44922 3.38281,34.79687 -13.27735,53.89062 z m 0,0"
     id="path14"
     inkscape:connector-curvature="0"
     style="fill:#59474e" />
  <path
     d="m 253.49575,116.45703 c -0.29297,5.41406 -1.22656,10.77344 -2.77734,15.96875 -3.08203,10.69531 -8.74219,20.46875 -16.48438,28.46484 -3.52734,3.73047 -7.49218,7.02344 -11.80468,9.80469 -1.30078,0.86719 -2.60157,1.64844 -3.90625,2.42969 -5.23438,3.21875 -8.39844,8.95312 -8.32813,15.10156 v 89.46875 c 0,14.37891 -11.65625,26.03516 -26.03515,26.03516 -14.37891,0 -26.03516,-11.65625 -26.03516,-26.03516 v -89.46875 c 0.0703,-6.14844 -3.09375,-11.88281 -8.32813,-15.10156 -1.30078,-0.78125 -2.60546,-1.5625 -3.90625,-2.42969 -4.3125,-2.78125 -8.27734,-6.07422 -11.80078,-9.80469 -7.74218,-7.99609 -13.40625,-17.76953 -16.48828,-28.46484 -1.5625,-5.1875 -2.46484,-10.55469 -2.6914,-15.96875 2.08203,31.84766 32.28125,57.10156 69.25,57.10156 36.96875,0 67.16796,-25.2539 69.33593,-57.10156 z m 0,0"
     id="path16"
     inkscape:connector-curvature="0"
     style="fill:#cc4b4c" />
  <path
     d="m 253.5856,112.8125 c 0,1.21484 0,2.42969 -0.0899,3.64453 -2.16797,31.84766 -32.36718,57.10156 -69.33593,57.10156 -36.96875,0 -67.16797,-25.2539 -69.25,-57.10156 -0.14454,-1.20703 -0.20313,-2.42578 -0.17188,-3.64453 0,-1.21484 0,-2.34375 0.0859,-3.55859 0.0859,-0.86719 0.17187,-1.82032 0.26172,-2.6875 0.89453,-10.968754 4.46875,-21.546879 10.41015,-30.808598 l -0.25781,-1.472656 c 1.99609,-0.347656 4.07813,-0.695312 6.24609,-0.957031 17.42969,-2.675781 35.04297,-3.980469 52.67579,-3.90625 17.63281,-0.07422 35.24609,1.230469 52.67578,3.90625 2.16797,0.261719 4.2539,0.609375 6.25,0.957031 l -0.26172,1.472656 c 5.9414,9.261719 9.51562,19.839844 10.41406,30.808598 0.0859,0.95312 0.17188,1.82031 0.25781,2.6875 v 0.4375 c 0.0899,1.03906 0.0899,2.08203 0.0899,3.12109 z m 0,0"
     id="path18"
     inkscape:connector-curvature="0"
     style="fill:#cb9080" />
  <path
     d="m 320.74966,351.97656 c -0.37891,2.92969 -2.22266,5.46094 -4.89063,6.72656 -2.66406,1.26172 -5.79296,1.08204 -8.29687,-0.47656 -2.42969,-1.47656 -4.85938,-3.03906 -7.11719,-4.6875 -69.76953,-47.8125 -76.88672,-139.01953 -77.23437,-169.65234 -0.0117,-2.64453 1.18359,-5.14844 3.24218,-6.80469 2.0625,-1.65625 4.76563,-2.28125 7.34375,-1.69922 l 2.51954,0.51953 c 0.17187,0.0859 0.43359,0.0859 0.60546,0.17188 16.75782,3.74609 32.28516,11.6875 45.125,23.08594 11.125,10.01171 19.97266,22.29296 25.94922,36.01171 9.24219,21.70313 14.25,44.97266 14.75,68.5586 0.66797,16.10937 0,32.24609 -1.99609,48.24609 z m 0,0"
     id="path22"
     inkscape:connector-curvature="0"
     style="fill:#7f5b53" />
  <path
     d="m 392.43325,269.01562 c 0,19.17969 -31.07031,34.71485 -69.42578,34.71485 h -0.26172 c -0.5,-23.58594 -5.50781,-46.85547 -14.75,-68.5586 4.98047,-0.60156 9.9961,-0.89453 15.01172,-0.86718 13.90625,-0.12891 27.73047,2.13281 40.875,6.68359 17.26953,6.24609 28.55078,16.48828 28.55078,28.02734 z m 0,0"
     id="path24"
     inkscape:connector-curvature="0"
     style="fill:#59474e" />
  <path
     d="m 363.88247,240.98828 c -13.14453,-4.55078 -26.96875,-6.8125 -40.875,-6.68359 -5.01562,-0.0273 -10.03125,0.26562 -15.01172,0.86718 -5.97656,-13.71875 -14.82422,-26 -25.94922,-36.01171 l 0.0899,-0.0859 c 11.46094,-12.53906 25.91015,-21.97266 42,-27.42578 5.5039,-2.01953 11.16406,-3.58594 16.92187,-4.6836 29.58985,-5.90234 55.625,1.21485 61.875,18.57032 6.50782,18.13671 -10.41406,41.21875 -39.05078,55.45312 z m 0,0"
     id="path26"
     inkscape:connector-curvature="0"
     style="fill:#c2615f" />
  <path
     d="m 301.05435,106.56641 c -0.95703,0.34765 -1.82422,0.6914 -2.77735,1.1289 0.41016,-1.14062 0.61719,-2.34765 0.60547,-3.55859 0,-11.371095 -17.96094,-21.347658 -45.64453,-27.769532 l -3.64453,-16.140626 c 21.34766,-10.589843 42,-11.195312 52.5,0.34375 9.37109,10.328126 8.33203,27.945313 -1.03906,45.996098 z m 0,0"
     id="path28"
     inkscape:connector-curvature="0"
     style="fill:#c2615f" />
  <path
     d="m 300.44497,353.53906 c -12.83984,25.41797 -33.61719,45.94922 -59.18359,58.49219 -15.13672,7.42969 -31.59375,11.79297 -48.42188,12.84375 -2.86328,0.25781 -5.73047,0.34375 -8.67968,0.34375 -2.94922,0 -5.8125,-0.0859 -8.67579,-0.34375 -16.83203,-1.05078 -33.28906,-5.41406 -48.42578,-12.84375 -25.5625,-12.54297 -46.343748,-33.07422 -59.183588,-58.49219 69.773438,-47.8125 76.886718,-139.01953 77.234368,-169.65234 0.0117,-2.64453 -1.18359,-5.14844 -3.24218,-6.80469 -2.0625,-1.65625 -4.76563,-2.28125 -7.34375,-1.69922 l -2.51563,0.51953 v -0.0859 c 4.50781,-2.01563 9.14453,-3.72657 13.88281,-5.1211 1.30079,0.86719 2.60547,1.64844 3.90625,2.42969 5.23438,3.21875 8.39844,8.95312 8.32813,15.10156 v 89.46875 c 0,14.37891 11.65625,26.03516 26.03516,26.03516 14.3789,0 26.03515,-11.65625 26.03515,-26.03516 v -89.46875 c -0.0703,-6.14844 3.09375,-11.88281 8.32813,-15.10156 1.30468,-0.78125 2.60547,-1.5625 3.90625,-2.42969 4.73828,1.39453 9.375,3.10547 13.88672,5.1211 v 0.0859 l -2.51954,-0.51953 c -2.57812,-0.58203 -5.28125,0.043 -7.34375,1.69922 -2.05859,1.65625 -3.2539,4.16016 -3.24218,6.80469 0.34765,30.63281 7.46484,121.83984 77.23437,169.65234 z m 0,0"
     id="path30"
     inkscape:connector-curvature="0"
     style="fill:#cb9080" />
  <path
     d="m 145.10903,183.88672 c -0.34765,30.63281 -7.46093,121.83984 -77.234368,169.65234 -2.25391,1.64844 -4.683594,3.21094 -7.113281,4.6875 -2.507813,1.5586 -5.632813,1.73828 -8.300781,0.47656 -2.667969,-1.26562 -4.511719,-3.79687 -4.890626,-6.72656 -1.996093,-16 -2.660156,-32.13672 -1.996093,-48.24609 0.5,-23.58594 5.507812,-46.85547 14.75,-68.5586 5.976561,-13.71875 14.824221,-26 25.949221,-36.01171 12.83984,-11.39844 28.371088,-19.33985 45.124998,-23.08594 0.17187,-0.0859 0.43359,-0.0859 0.60937,-0.17188 l 2.51563,-0.51953 c 2.57812,-0.58203 5.28125,0.043 7.34375,1.69922 2.05859,1.65625 3.2539,4.16016 3.24218,6.80469 z m 0,0"
     id="path32"
     inkscape:connector-curvature="0"
     style="fill:#7f5b53" />
  <path
     d="m 60.323881,235.17187 c -9.242188,21.70313 -14.25,44.97266 -14.75,68.5586 h -0.261719 c -38.3554689,0 -69.421875,-15.53516 -69.421875,-34.71485 0,-11.53906 11.28125,-21.78125 28.5507811,-28.02734 13.1406249,-4.55078 26.9648439,-6.8125 40.8710939,-6.68359 5.019531,-0.0273 10.03125,0.26562 15.011719,0.86718 z m 0,0"
     id="path34"
     inkscape:connector-curvature="0"
     style="fill:#59474e" />
  <path
     d="m 86.273102,199.16016 c -11.125,10.01171 -19.97266,22.29296 -25.949221,36.01171 -4.980469,-0.60156 -9.992188,-0.89453 -15.011719,-0.86718 -13.90625,-0.12891 -27.730469,2.13281 -40.8710939,6.68359 -28.6406251,-14.23437 -45.5625001,-37.31641 -39.0507811,-55.45312 6.246094,-17.35547 32.2812501,-24.47266 61.871094,-18.57032 5.761719,1.09766 11.417969,2.66407 16.921875,4.6836 16.089844,5.45312 30.539066,14.88672 42.003906,27.42578 z m 0,0"
     id="path36"
     inkscape:connector-curvature="0"
     style="fill:#c2615f" />
  <path
     d="m 132.00747,175.81641 c -0.21875,0.0469 -0.42578,0.13671 -0.60937,0.25781 -16.75391,3.74609 -32.285158,11.6875 -45.124998,23.08594 l -0.0859,-0.0859 C 74.722322,186.53516 60.2731,177.10156 44.183256,171.64844 38.67935,169.62891 33.0231,168.0625 27.261381,166.96484 10.601224,147.87109 4.6129431,126.52344 13.984037,113.07422 c 9.199219,-13.01563 30.375,-14.839845 53.285155,-6.50781 0.95313,0.34765 1.82031,0.6914 2.77735,1.1289 2.77734,8.41407 15.44531,15.87891 34.449208,21.4336 h 0.0859 c 9.6875,8.25 17.52344,18.45312 23,29.9375 2.49609,5.26171 3.99609,10.9414 4.42578,16.75 z m 0,0"
     id="path38"
     inkscape:connector-curvature="0"
     style="fill:#59474e" />
  <path
     d="m 145.89028,170.69531 c -4.73828,1.39453 -9.375,3.10547 -13.88281,5.1211 -0.42969,-5.8086 -1.92969,-11.48829 -4.42578,-16.75 -5.47656,-11.48438 -13.3125,-21.6875 -23,-29.9375 4.08203,1.21484 8.33203,2.2539 13.01953,3.29687 3.08203,10.69531 8.7461,20.46875 16.48828,28.46484 3.52344,3.73047 7.48828,7.02344 11.80078,9.80469 z m 0,0"
     id="path40"
     inkscape:connector-curvature="0"
     style="fill:#c2615f" />
  <path
     d="m 118.73013,60.226562 -3.64453,16.140626 c -27.683598,6.421874 -45.648438,16.398437 -45.648438,27.769532 -0.008,1.21094 0.19531,2.41797 0.60938,3.55859 -0.95704,-0.4375 -1.82422,-0.78125 -2.77735,-1.1289 -9.374999,-18.050785 -10.414061,-35.667972 -1.04297,-45.996098 10.5,-11.539062 31.15625,-10.933593 52.503908,-0.34375 z m 0,0"
     id="path42"
     inkscape:connector-curvature="0"
     style="fill:#c2615f" />
  <path
     d="m 166.80435,104.13672 c 0,4.79297 -3.88672,8.67578 -8.67969,8.67578 -4.78906,0 -8.67578,-3.88281 -8.67578,-8.67578 0,-4.79297 3.88672,-8.679689 8.67578,-8.679689 4.79297,0 8.67969,3.886719 8.67969,8.679689 z m 0,0"
     id="path44"
     inkscape:connector-curvature="0"
     style="fill:#2c3e50" />
  <path
     d="m 218.87075,104.13672 c 0,4.79297 -3.88281,8.67578 -8.67578,8.67578 -4.79297,0 -8.67969,-3.88281 -8.67969,-8.67578 0,-4.79297 3.88672,-8.679689 8.67969,-8.679689 4.79297,0 8.67578,3.886719 8.67578,8.679689 z m 0,0"
     id="path46"
     inkscape:connector-curvature="0"
     style="fill:#2c3e50" />
  <path
     d="m 201.51528,43.390625 v 26.03125 h -34.71093 v -26.03125 c 0,-4.792969 3.88672,-8.679687 8.67968,-8.679687 h 17.35547 c 4.79297,0 8.67578,3.886718 8.67578,8.679687 z m 0,0"
     id="path50"
     inkscape:connector-curvature="0"
     style="fill:#e4c05c" />
  <path
     d="m 114.73794,114.11719 c 0.10547,6.20312 1.06641,12.36719 2.86328,18.30859 -4.6875,-1.04297 -8.9375,-2.08203 -13.01953,-3.29687 h -0.0859 c -19.003898,-5.55469 -31.671868,-13.01953 -34.449208,-21.4336 -0.41407,-1.14062 -0.61719,-2.34765 -0.60938,-3.55859 0,-11.371095 17.96484,-21.347658 45.648438,-27.769532 3.20703,-0.695313 6.59375,-1.390626 10.15234,-2.082032 l 0.25781,1.472656 c -7.07031,11.0625 -10.80468,23.925782 -10.75781,37.054688 z m 0,0"
     id="path52"
     inkscape:connector-curvature="0"
     style="fill:#2c3e50" />
  <path
     d="m 263.73794,129.12891 c -9.6875,8.25 -17.52344,18.45312 -22.99609,29.9375 -2.4961,5.26171 -3.9961,10.9414 -4.42578,16.75 -4.51172,-2.01563 -9.14844,-3.72657 -13.88672,-5.1211 4.3125,-2.78125 8.27734,-6.07422 11.80468,-9.80469 7.74219,-7.99609 13.40235,-17.76953 16.48438,-28.46484 4.6875,-1.04297 8.94141,-2.08203 13.01953,-3.29687 z m 0,0"
     id="path54"
     inkscape:connector-curvature="0"
     style="fill:#c2615f" />
  <path
     d="m 298.88247,104.13672 c 0.0117,1.21094 -0.19531,2.41797 -0.60547,3.55859 -2.77734,8.41407 -15.44922,15.87891 -34.45312,21.4336 h -0.0859 c -4.07812,1.21484 -8.33203,2.2539 -13.01953,3.29687 1.79687,-5.9414 2.76172,-12.10547 2.86719,-18.30859 v -1.30469 c 0.043,-13.128906 -3.69141,-25.992188 -10.76172,-37.054688 l 0.26172,-1.472656 c 3.55468,0.691406 6.9414,1.386719 10.15234,2.082032 27.68359,6.421874 45.64453,16.398437 45.64453,27.769532 z m 0,0"
     id="path56"
     inkscape:connector-curvature="0"
     style="fill:#2c3e50" />
  <path
     style="fill:none;stroke:#eee649;stroke-width:17.5;stroke-linecap:round;stroke-linejoin:round;stroke-miterlimit:4;stroke-dasharray:none;stroke-opacity:0.90510948"
     d="m 182.65398,123.62659 25.31203,16.36333 -27.61312,11.24979"
     id="path880"
     inkscape:connector-curvature="0"
     sodipodi:nodetypes="ccc" />
</svg>
